<?xml version="1.0" standalone="no"?>
<!DOCTYPE svg PUBLIC "-//W3C//DTD SVG 20010904//EN"
 "http://www.w3.org/TR/2001/REC-SVG-20010904/DTD/svg10.dtd">
<svg version="1.0" xmlns="http://www.w3.org/2000/svg"
 width="600.000000pt" height="600.000000pt" viewBox="0 0 600.000000 600.000000"
 preserveAspectRatio="xMidYMid meet">
<metadata>
Created by potrace 1.11, written by Peter Selinger 2001-2013
</metadata>
<g transform="translate(0.000000,600.000000) scale(0.100000,-0.100000)"
fill="#000000" stroke="none">
<path d="M2650 5935 c-234 -29 -470 -87 -700 -172 -131 -48 -394 -178 -520
-258 -666 -420 -1138 -1085 -1310 -1845 -57 -250 -65 -329 -65 -660 0 -331 8
-410 65 -660 250 -1102 1118 -1970 2220 -2220 250 -57 329 -65 660 -65 331 0
410 8 660 65 1102 250 1970 1118 2220 2220 57 250 65 329 65 660 0 245 -4 328
-18 420 -81 513 -269 964 -568 1360 -466 617 -1132 1015 -1909 1142 -166 27
-626 34 -800 13z m-105 -650 c748 -113 1337 -702 1450 -1450 19 -130 19 -390
0 -520 -113 -748 -702 -1337 -1450 -1450 -130 -19 -390 -19 -520 0 -748 113
-1337 702 -1450 1450 -19 130 -19 390 0 520 112 744 699 1334 1442 1449 122
19 404 20 528 1z"/>
<path d="M2565 4720 c-292 -63 -545 -230 -719 -472 -64 -91 -142 -258 -173
-375 -25 -91 -27 -113 -27 -298 0 -185 2 -207 27 -298 31 -117 109 -284 173
-375 158 -221 399 -389 660 -459 92 -25 113 -27 299 -27 185 0 207 2 298 27
117 31 284 109 375 173 221 158 389 399 459 660 25 92 27 113 27 299 0 186 -2
207 -27 299 -70 261 -238 502 -459 660 -92 65 -259 142 -375 173 -137 36 -402
43 -538 13z"/>
</g>
</svg>
